<mxfile host="app.diagrams.net" modified="2022-03-21T15:11:35.895Z" agent="5.0 (Windows NT 10.0; Win64; x64) AppleWebKit/537.36 (KHTML, like Gecko) Chrome/99.0.4844.74 Safari/537.36" etag="TiDD-sT4pbCHYVjiezXT" version="17.1.3" type="github">
  <diagram id="72xdUwbH5XGnH5m5ktAG" name="Page-1">
    <mxGraphModel dx="3414" dy="1063" grid="1" gridSize="10" guides="1" tooltips="1" connect="1" arrows="1" fold="1" page="1" pageScale="1" pageWidth="850" pageHeight="1100" math="0" shadow="0">
      <root>
        <mxCell id="0" />
        <mxCell id="1" parent="0" />
        <mxCell id="xTvyXRYa4b6-l9Pv-uVp-2" value="" style="rounded=0;whiteSpace=wrap;html=1;strokeWidth=4;" parent="1" vertex="1">
          <mxGeometry x="350" y="470" width="990" height="1010" as="geometry" />
        </mxCell>
        <mxCell id="xTvyXRYa4b6-l9Pv-uVp-1" value="admin&lt;br style=&quot;font-size: 20px;&quot;&gt;" style="shape=umlActor;verticalLabelPosition=bottom;verticalAlign=top;html=1;outlineConnect=0;strokeWidth=4;fontSize=20;" parent="1" vertex="1">
          <mxGeometry x="380" y="800" width="30" height="60" as="geometry" />
        </mxCell>
        <mxCell id="m2_T-DbBgN0hlFFA3NLw-1" value="" style="ellipse;whiteSpace=wrap;html=1;" parent="1" vertex="1">
          <mxGeometry x="520" y="620" width="120" height="80" as="geometry" />
        </mxCell>
        <mxCell id="m2_T-DbBgN0hlFFA3NLw-3" value="" style="rounded=0;whiteSpace=wrap;html=1;strokeWidth=3;" parent="1" vertex="1">
          <mxGeometry x="520" y="520" width="550" height="940" as="geometry" />
        </mxCell>
        <mxCell id="N2GpOZxIEXrOJVGLXKo0-23" style="edgeStyle=orthogonalEdgeStyle;rounded=0;orthogonalLoop=1;jettySize=auto;html=1;exitX=0.5;exitY=1;exitDx=0;exitDy=0;entryX=0.5;entryY=0;entryDx=0;entryDy=0;strokeWidth=2;" parent="1" source="N2GpOZxIEXrOJVGLXKo0-2" target="N2GpOZxIEXrOJVGLXKo0-3" edge="1">
          <mxGeometry relative="1" as="geometry" />
        </mxCell>
        <mxCell id="N2GpOZxIEXrOJVGLXKo0-2" value="Login" style="ellipse;whiteSpace=wrap;html=1;strokeWidth=2;fontSize=20;" parent="1" vertex="1">
          <mxGeometry x="560" y="570" width="120" height="80" as="geometry" />
        </mxCell>
        <mxCell id="N2GpOZxIEXrOJVGLXKo0-3" value="Validate Account" style="ellipse;whiteSpace=wrap;html=1;strokeWidth=2;fontSize=20;" parent="1" vertex="1">
          <mxGeometry x="560" y="670" width="120" height="80" as="geometry" />
        </mxCell>
        <mxCell id="N2GpOZxIEXrOJVGLXKo0-4" value="Create an Event" style="ellipse;whiteSpace=wrap;html=1;strokeWidth=2;fontSize=20;" parent="1" vertex="1">
          <mxGeometry x="560" y="1010" width="120" height="80" as="geometry" />
        </mxCell>
        <mxCell id="N2GpOZxIEXrOJVGLXKo0-34" style="rounded=0;orthogonalLoop=1;jettySize=auto;html=1;strokeWidth=2;entryX=0.5;entryY=0;entryDx=0;entryDy=0;" parent="1" target="N2GpOZxIEXrOJVGLXKo0-6" edge="1">
          <mxGeometry relative="1" as="geometry">
            <mxPoint x="970" y="1090" as="sourcePoint" />
          </mxGeometry>
        </mxCell>
        <mxCell id="N2GpOZxIEXrOJVGLXKo0-5" value="Make a Team" style="ellipse;whiteSpace=wrap;html=1;strokeWidth=2;fontSize=20;" parent="1" vertex="1">
          <mxGeometry x="920" y="1010" width="120" height="80" as="geometry" />
        </mxCell>
        <mxCell id="N2GpOZxIEXrOJVGLXKo0-38" style="edgeStyle=orthogonalEdgeStyle;rounded=0;orthogonalLoop=1;jettySize=auto;html=1;exitX=0.5;exitY=1;exitDx=0;exitDy=0;entryX=0.5;entryY=0;entryDx=0;entryDy=0;strokeWidth=2;" parent="1" source="N2GpOZxIEXrOJVGLXKo0-6" target="N2GpOZxIEXrOJVGLXKo0-7" edge="1">
          <mxGeometry relative="1" as="geometry" />
        </mxCell>
        <mxCell id="xvBi3D_ek0O3-a3gkkc2-36" style="rounded=0;orthogonalLoop=1;jettySize=auto;html=1;entryX=1;entryY=0.5;entryDx=0;entryDy=0;strokeWidth=2;" parent="1" target="N2GpOZxIEXrOJVGLXKo0-26" edge="1">
          <mxGeometry relative="1" as="geometry">
            <mxPoint x="940" y="1180" as="sourcePoint" />
          </mxGeometry>
        </mxCell>
        <mxCell id="N2GpOZxIEXrOJVGLXKo0-6" value="Book a auditorium/meeting Room" style="ellipse;whiteSpace=wrap;html=1;strokeWidth=2;fontSize=20;" parent="1" vertex="1">
          <mxGeometry x="880" y="1140" width="170" height="80" as="geometry" />
        </mxCell>
        <mxCell id="xvBi3D_ek0O3-a3gkkc2-37" style="edgeStyle=orthogonalEdgeStyle;rounded=0;orthogonalLoop=1;jettySize=auto;html=1;exitX=0.5;exitY=1;exitDx=0;exitDy=0;entryX=0.5;entryY=0;entryDx=0;entryDy=0;strokeWidth=2;" parent="1" source="N2GpOZxIEXrOJVGLXKo0-7" target="xvBi3D_ek0O3-a3gkkc2-32" edge="1">
          <mxGeometry relative="1" as="geometry" />
        </mxCell>
        <mxCell id="N2GpOZxIEXrOJVGLXKo0-7" value="Order Refreshments" style="ellipse;whiteSpace=wrap;html=1;strokeWidth=2;fontSize=20;" parent="1" vertex="1">
          <mxGeometry x="890" y="1270" width="150" height="80" as="geometry" />
        </mxCell>
        <mxCell id="N2GpOZxIEXrOJVGLXKo0-9" value="organising&lt;br&gt;team&lt;br style=&quot;font-size: 20px&quot;&gt;Team&lt;span style=&quot;color: rgba(0 , 0 , 0 , 0) ; font-family: monospace ; font-size: 20px&quot;&gt;%3CmxGraphModel%3E%3Croot%3E%3CmxCell%20id%3D%220%22%2F%3E%3CmxCell%20id%3D%221%22%20parent%3D%220%22%2F%3E%3CmxCell%20id%3D%222%22%20value%3D%22admin%26lt%3Bbr%26gt%3B%22%20style%3D%22shape%3DumlActor%3BverticalLabelPosition%3Dbottom%3BverticalAlign%3Dtop%3Bhtml%3D1%3BoutlineConnect%3D0%3B%22%20vertex%3D%221%22%20parent%3D%221%22%3E%3CmxGeometry%20x%3D%22120%22%20y%3D%22370%22%20width%3D%2230%22%20height%3D%2260%22%20as%3D%22geometry%22%2F%3E%3C%2FmxCell%3E%3C%2Froot%3E%3C%2FmxGraphModel%3E&lt;/span&gt;" style="shape=umlActor;verticalLabelPosition=bottom;verticalAlign=top;html=1;outlineConnect=0;strokeWidth=4;fontSize=20;" parent="1" vertex="1">
          <mxGeometry x="1185" y="590" width="30" height="60" as="geometry" />
        </mxCell>
        <mxCell id="N2GpOZxIEXrOJVGLXKo0-11" value="Cancel Event" style="ellipse;whiteSpace=wrap;html=1;strokeWidth=2;fontSize=20;" parent="1" vertex="1">
          <mxGeometry x="570" y="870" width="120" height="80" as="geometry" />
        </mxCell>
        <mxCell id="xvBi3D_ek0O3-a3gkkc2-22" style="edgeStyle=orthogonalEdgeStyle;rounded=0;orthogonalLoop=1;jettySize=auto;html=1;exitX=1;exitY=0.5;exitDx=0;exitDy=0;entryX=0;entryY=0.5;entryDx=0;entryDy=0;strokeWidth=2;" parent="1" source="N2GpOZxIEXrOJVGLXKo0-20" target="xvBi3D_ek0O3-a3gkkc2-21" edge="1">
          <mxGeometry relative="1" as="geometry" />
        </mxCell>
        <mxCell id="N2GpOZxIEXrOJVGLXKo0-20" value="Add user to organisation" style="ellipse;whiteSpace=wrap;html=1;strokeWidth=2;fontSize=20;" parent="1" vertex="1">
          <mxGeometry x="560" y="770" width="130" height="80" as="geometry" />
        </mxCell>
        <mxCell id="N2GpOZxIEXrOJVGLXKo0-21" value="" style="endArrow=none;html=1;rounded=0;entryX=0;entryY=1;entryDx=0;entryDy=0;strokeWidth=3;" parent="1" target="N2GpOZxIEXrOJVGLXKo0-2" edge="1">
          <mxGeometry width="50" height="50" relative="1" as="geometry">
            <mxPoint x="395" y="830" as="sourcePoint" />
            <mxPoint x="560" y="600" as="targetPoint" />
          </mxGeometry>
        </mxCell>
        <mxCell id="N2GpOZxIEXrOJVGLXKo0-25" value="" style="endArrow=none;html=1;rounded=0;exitX=0.5;exitY=0.5;exitDx=0;exitDy=0;exitPerimeter=0;entryX=0;entryY=0.5;entryDx=0;entryDy=0;strokeWidth=3;" parent="1" source="xTvyXRYa4b6-l9Pv-uVp-1" target="N2GpOZxIEXrOJVGLXKo0-20" edge="1">
          <mxGeometry width="50" height="50" relative="1" as="geometry">
            <mxPoint x="770" y="1010" as="sourcePoint" />
            <mxPoint x="820" y="960" as="targetPoint" />
          </mxGeometry>
        </mxCell>
        <mxCell id="xvBi3D_ek0O3-a3gkkc2-3" style="edgeStyle=orthogonalEdgeStyle;rounded=0;orthogonalLoop=1;jettySize=auto;html=1;exitX=0.5;exitY=1;exitDx=0;exitDy=0;entryX=0.5;entryY=0;entryDx=0;entryDy=0;strokeWidth=2;" parent="1" source="N2GpOZxIEXrOJVGLXKo0-26" target="xvBi3D_ek0O3-a3gkkc2-2" edge="1">
          <mxGeometry relative="1" as="geometry" />
        </mxCell>
        <mxCell id="N2GpOZxIEXrOJVGLXKo0-26" value="Update Social Media" style="ellipse;whiteSpace=wrap;html=1;strokeWidth=2;fontSize=20;" parent="1" vertex="1">
          <mxGeometry x="630" y="1140" width="150" height="80" as="geometry" />
        </mxCell>
        <mxCell id="N2GpOZxIEXrOJVGLXKo0-40" value="" style="endArrow=none;html=1;rounded=0;exitX=0.5;exitY=0.5;exitDx=0;exitDy=0;exitPerimeter=0;entryX=0;entryY=0;entryDx=0;entryDy=0;strokeWidth=3;" parent="1" source="xTvyXRYa4b6-l9Pv-uVp-1" target="N2GpOZxIEXrOJVGLXKo0-4" edge="1">
          <mxGeometry width="50" height="50" relative="1" as="geometry">
            <mxPoint x="520" y="930" as="sourcePoint" />
            <mxPoint x="570" y="880" as="targetPoint" />
          </mxGeometry>
        </mxCell>
        <mxCell id="N2GpOZxIEXrOJVGLXKo0-41" value="" style="endArrow=none;html=1;rounded=0;entryX=0;entryY=0;entryDx=0;entryDy=0;strokeWidth=3;" parent="1" target="N2GpOZxIEXrOJVGLXKo0-11" edge="1">
          <mxGeometry width="50" height="50" relative="1" as="geometry">
            <mxPoint x="400" y="830" as="sourcePoint" />
            <mxPoint x="560" y="1120" as="targetPoint" />
          </mxGeometry>
        </mxCell>
        <mxCell id="xvBi3D_ek0O3-a3gkkc2-2" value="Make report of the event" style="ellipse;whiteSpace=wrap;html=1;strokeWidth=2;fontSize=20;" parent="1" vertex="1">
          <mxGeometry x="630" y="1250" width="150" height="80" as="geometry" />
        </mxCell>
        <mxCell id="xvBi3D_ek0O3-a3gkkc2-4" value="Event &lt;br&gt;Manager" style="shape=umlActor;verticalLabelPosition=bottom;verticalAlign=top;html=1;outlineConnect=0;strokeWidth=4;fontSize=22;" parent="1" vertex="1">
          <mxGeometry x="1142" y="730" width="30" height="60" as="geometry" />
        </mxCell>
        <mxCell id="xvBi3D_ek0O3-a3gkkc2-8" value="" style="endArrow=classic;html=1;rounded=0;" parent="1" edge="1">
          <mxGeometry width="50" height="50" relative="1" as="geometry">
            <mxPoint x="1155" y="730" as="sourcePoint" />
            <mxPoint x="1180" y="700" as="targetPoint" />
          </mxGeometry>
        </mxCell>
        <mxCell id="xvBi3D_ek0O3-a3gkkc2-9" value="Team&lt;br&gt;&amp;nbsp;Member" style="shape=umlActor;verticalLabelPosition=bottom;verticalAlign=top;html=1;outlineConnect=0;strokeWidth=4;fontSize=20;" parent="1" vertex="1">
          <mxGeometry x="1250" y="780" width="25" height="60" as="geometry" />
        </mxCell>
        <mxCell id="xvBi3D_ek0O3-a3gkkc2-14" value="" style="endArrow=classic;html=1;rounded=0;exitX=0.5;exitY=0;exitDx=0;exitDy=0;exitPerimeter=0;" parent="1" source="xvBi3D_ek0O3-a3gkkc2-9" edge="1">
          <mxGeometry width="50" height="50" relative="1" as="geometry">
            <mxPoint x="1165" y="740" as="sourcePoint" />
            <mxPoint x="1220" y="710" as="targetPoint" />
          </mxGeometry>
        </mxCell>
        <mxCell id="xvBi3D_ek0O3-a3gkkc2-19" value="" style="endArrow=none;html=1;rounded=0;entryX=0;entryY=0.3333333333333333;entryDx=0;entryDy=0;entryPerimeter=0;strokeWidth=3;" parent="1" target="N2GpOZxIEXrOJVGLXKo0-9" edge="1">
          <mxGeometry width="50" height="50" relative="1" as="geometry">
            <mxPoint x="680" y="620" as="sourcePoint" />
            <mxPoint x="730" y="570" as="targetPoint" />
          </mxGeometry>
        </mxCell>
        <mxCell id="xvBi3D_ek0O3-a3gkkc2-21" value="assign user a bureau/cell" style="ellipse;whiteSpace=wrap;html=1;strokeWidth=2;fontSize=20;" parent="1" vertex="1">
          <mxGeometry x="735" y="770" width="145" height="80" as="geometry" />
        </mxCell>
        <mxCell id="xvBi3D_ek0O3-a3gkkc2-25" value="" style="endArrow=none;html=1;rounded=0;exitX=1;exitY=0;exitDx=0;exitDy=0;entryX=0;entryY=0.3333333333333333;entryDx=0;entryDy=0;entryPerimeter=0;strokeWidth=3;" parent="1" source="N2GpOZxIEXrOJVGLXKo0-4" target="xvBi3D_ek0O3-a3gkkc2-4" edge="1">
          <mxGeometry width="50" height="50" relative="1" as="geometry">
            <mxPoint x="590" y="970" as="sourcePoint" />
            <mxPoint x="640" y="920" as="targetPoint" />
          </mxGeometry>
        </mxCell>
        <mxCell id="xvBi3D_ek0O3-a3gkkc2-26" value="" style="endArrow=none;html=1;rounded=0;entryX=0;entryY=1;entryDx=0;entryDy=0;entryPerimeter=0;strokeWidth=3;exitX=1;exitY=0.5;exitDx=0;exitDy=0;" parent="1" source="N2GpOZxIEXrOJVGLXKo0-27" target="xvBi3D_ek0O3-a3gkkc2-9" edge="1">
          <mxGeometry width="50" height="50" relative="1" as="geometry">
            <mxPoint x="840" y="1030" as="sourcePoint" />
            <mxPoint x="920" y="860" as="targetPoint" />
            <Array as="points" />
          </mxGeometry>
        </mxCell>
        <mxCell id="xvBi3D_ek0O3-a3gkkc2-42" style="edgeStyle=orthogonalEdgeStyle;rounded=0;orthogonalLoop=1;jettySize=auto;html=1;exitX=0.5;exitY=0;exitDx=0;exitDy=0;exitPerimeter=0;entryX=0.5;entryY=0;entryDx=0;entryDy=0;strokeWidth=3;" parent="1" source="xvBi3D_ek0O3-a3gkkc2-27" target="N2GpOZxIEXrOJVGLXKo0-2" edge="1">
          <mxGeometry relative="1" as="geometry">
            <Array as="points">
              <mxPoint x="1320" y="1210" />
              <mxPoint x="1320" y="500" />
              <mxPoint x="620" y="500" />
            </Array>
          </mxGeometry>
        </mxCell>
        <mxCell id="xvBi3D_ek0O3-a3gkkc2-27" value="Canteen Owner" style="shape=umlActor;verticalLabelPosition=bottom;verticalAlign=top;html=1;outlineConnect=0;strokeWidth=4;fontSize=20;" parent="1" vertex="1">
          <mxGeometry x="1230" y="1210" width="30" height="60" as="geometry" />
        </mxCell>
        <mxCell id="xvBi3D_ek0O3-a3gkkc2-32" value="Confirm Order" style="ellipse;whiteSpace=wrap;html=1;strokeWidth=2;fontSize=20;" parent="1" vertex="1">
          <mxGeometry x="890" y="1370" width="150" height="80" as="geometry" />
        </mxCell>
        <mxCell id="xvBi3D_ek0O3-a3gkkc2-39" value="" style="endArrow=none;html=1;rounded=0;entryX=0;entryY=0.3333333333333333;entryDx=0;entryDy=0;entryPerimeter=0;strokeWidth=3;" parent="1" source="xvBi3D_ek0O3-a3gkkc2-32" target="xvBi3D_ek0O3-a3gkkc2-27" edge="1">
          <mxGeometry width="50" height="50" relative="1" as="geometry">
            <mxPoint x="770" y="1150" as="sourcePoint" />
            <mxPoint x="820" y="1100" as="targetPoint" />
          </mxGeometry>
        </mxCell>
        <mxCell id="xvBi3D_ek0O3-a3gkkc2-41" value="" style="endArrow=none;html=1;rounded=0;entryX=0;entryY=0.3333333333333333;entryDx=0;entryDy=0;entryPerimeter=0;strokeWidth=3;exitX=1;exitY=0.5;exitDx=0;exitDy=0;" parent="1" target="xvBi3D_ek0O3-a3gkkc2-4" edge="1" source="N2GpOZxIEXrOJVGLXKo0-11">
          <mxGeometry width="50" height="50" relative="1" as="geometry">
            <mxPoint x="670" y="980" as="sourcePoint" />
            <mxPoint x="720" y="930" as="targetPoint" />
          </mxGeometry>
        </mxCell>
        <mxCell id="N2GpOZxIEXrOJVGLXKo0-27" value="Schedule Meeting&lt;br style=&quot;font-size: 20px;&quot;&gt;within Team" style="ellipse;whiteSpace=wrap;html=1;strokeWidth=2;fontSize=20;" parent="1" vertex="1">
          <mxGeometry x="800" y="930" width="160" height="80" as="geometry" />
        </mxCell>
        <mxCell id="erEggMbfo1zzaU42bNl_-11" style="rounded=0;orthogonalLoop=1;jettySize=auto;html=1;strokeWidth=2;exitX=0.333;exitY=0.054;exitDx=0;exitDy=0;exitPerimeter=0;entryX=1;entryY=1;entryDx=0;entryDy=0;" edge="1" parent="1" source="N2GpOZxIEXrOJVGLXKo0-5" target="N2GpOZxIEXrOJVGLXKo0-27">
          <mxGeometry relative="1" as="geometry">
            <mxPoint x="980" y="1100" as="sourcePoint" />
            <mxPoint x="940" y="990" as="targetPoint" />
          </mxGeometry>
        </mxCell>
        <mxCell id="erEggMbfo1zzaU42bNl_-12" style="rounded=0;orthogonalLoop=1;jettySize=auto;html=1;strokeWidth=2;entryX=0;entryY=0.5;entryDx=0;entryDy=0;exitX=1;exitY=0.5;exitDx=0;exitDy=0;" edge="1" parent="1" source="N2GpOZxIEXrOJVGLXKo0-4" target="N2GpOZxIEXrOJVGLXKo0-5">
          <mxGeometry relative="1" as="geometry">
            <mxPoint x="990" y="1110" as="sourcePoint" />
            <mxPoint x="985" y="1160" as="targetPoint" />
          </mxGeometry>
        </mxCell>
      </root>
    </mxGraphModel>
  </diagram>
</mxfile>
